<?xml version="1.0" encoding="UTF-8" standalone="no"?>
<!-- Generator: Adobe Illustrator 10, SVG Export Plug-In . SVG Version: 3.0.0 Build 76)  -->
<svg id="svg2" overflow="visible" height="369" xmlns:dc="http://purl.org/dc/elements/1.1/" space="preserve" viewBox="0 0 395.833 349" width="368" version="1.0" xmlns:cc="http://web.resource.org/cc/" xmlns:rdf="http://www.w3.org/1999/02/22-rdf-syntax-ns#" xmlns="http://www.w3.org/2000/svg" enable-background="new 0 0 395.833 349">
 <metadata id="metadata4">
  <rdf:RDF>
   <cc:Work rdf:about="">
    <dc:title>Keep Tidy Outside</dc:title>
    <dc:description/>
    <dc:subject>
     <rdf:Bag>
      <rdf:li/>
      <rdf:li>symbol</rdf:li>
      <rdf:li>bin</rdf:li>
      <rdf:li>outside</rdf:li>
      <rdf:li>signs_and_symbols</rdf:li>
      <rdf:li>rubish</rdf:li>
      <rdf:li>clean</rdf:li>
      <rdf:li>park</rdf:li>
      <rdf:li>trash</rdf:li>
      <rdf:li>garbage</rdf:li>
      <rdf:li>sign</rdf:li>
     </rdf:Bag>
    </dc:subject>
    <dc:publisher>
     <cc:Agent rdf:about="http://www.openclipart.org">
      <dc:title>Martin Owens</dc:title>
     </cc:Agent>
    </dc:publisher>
    <dc:creator>
     <cc:Agent>
      <dc:title>Martin Owens</dc:title>
     </cc:Agent>
    </dc:creator>
    <dc:rights>
     <cc:Agent>
      <dc:title>Martin Owens</dc:title>
     </cc:Agent>
    </dc:rights>
    <dc:date/>
    <dc:format>image/svg+xml</dc:format>
    <dc:type rdf:resource="http://purl.org/dc/dcmitype/StillImage"/>
    <cc:license rdf:resource="http://web.resource.org/cc/PublicDomain"/>
    <dc:language>en</dc:language>
   </cc:Work>
   <cc:License rdf:about="http://web.resource.org/cc/PublicDomain">
    <cc:permits rdf:resource="http://web.resource.org/cc/Reproduction"/>
    <cc:permits rdf:resource="http://web.resource.org/cc/Distribution"/>
    <cc:permits rdf:resource="http://web.resource.org/cc/DerivativeWorks"/>
   </cc:License>
  </rdf:RDF>
 </metadata>
 <g id="Layer_1" transform="matrix(1.0756 0 0 1.0756 -40.694 -13.198)">
  <path id="path7" d="m395.33 174.5c0 96.1-77.68 174-173.5 174s-173.5-77.9-173.5-174c0.003-96.098 77.68-174 173.5-174 95.83 0 173.5 77.902 173.5 174z" stroke="#0086e0" fill="#fff"/>
  <path id="path9" d="m286.33 53.5c0 13.807-11.86 25-26.5 25-14.63 0-26.5-11.193-26.5-25s11.87-25 26.5-25c14.64 0 26.5 11.193 26.5 25z"/>
  <path id="path11" d="m113.83 173c1.06 6.36 19.84 128.92 19.84 128.92h68.33s13.6-125.03 13.83-128.92c6.23-0.62 7.67-6-1-6-12.16 0-89.2-0.06-98 0-8.79 0.06-7.83 5.49-3 6z"/>
  <path id="path13" d="m126.33 141.5c17.29-5.32 24.18-23.53 27-31 14.52 6.6 40.34 12.26 59 8 3.69 19.42-28.04 19.31-23 37-8.42-9.3-51.59 12.29-63-14z"/>
  <path id="path15" d="m151.33 82.5l139-1c-0.6 3.421 33.64 57.5 29 67-4.09 0.42-67 5-67 5 6.11-9.38-13-43-13-43l-88-28z"/>
  <path id="path17" d="m318.33 156.5l-66-3s-23.56 143.36-24 145c-0.43 1.64 1.86 2.54 3 1 1.15-1.54 51-82 51-82s19.76 80.7 20 82c0.25 1.3 3.72 1.21 4 0s12-143 12-143z"/>
  <path id="path19" d="m136.86 297.94h61.5s18.9-125.47 11.1-125.47c-1.83 0-86.44-0.01-88.2 0-7.92 0.05 15.6 125.47 15.6 125.47z" stroke="#000" fill="#fff"/>
  <path id="path23" d="m169.49 298.5h-5.31v-127.33h5.31v127.33z"/>
  <path id="path25" d="m189.59 298.87l-5.05-0.41 8.37-127.34 5.05 0.4-8.37 127.35z"/>
  <path id="path27" d="m144.91 299.2l5.05-0.41-8.37-127.34-5.05 0.41 8.37 127.34z"/>
  <g id="g29">
   <path id="path31" d="m213.17 191.69v5.62h-94.34v-5.62h94.34z"/>
   <path id="path33" d="m209.83 219.02v5.62h-86.66v-5.62h86.66z"/>
   <path id="path35" d="m206.83 245.02v5.62h-80.33v-5.62h80.33z"/>
   <path id="path37" d="m203.5 271.02v5.62h-73v-5.62h73z"/>
  </g>
 </g>
</svg>
